<svg width="46" height="46" viewBox="0 0 46 46" fill="none" xmlns="http://www.w3.org/2000/svg">
<g clip-path="url(#clip0_4829_90710)">
<path d="M19.7823 17.5552C20.9433 18.0912 20.9433 19.7416 19.7815 20.2783L12.9007 23.4581C12.7483 23.5286 12.5806 23.5596 12.4131 23.5482C12.2455 23.5369 12.0836 23.4835 11.9421 23.393C11.8006 23.3026 11.6842 23.1779 11.6036 23.0306C11.523 22.8833 11.4808 22.7181 11.4808 22.5502V15.284C11.4809 15.1162 11.5233 14.9512 11.6039 14.8041C11.6845 14.6569 11.8009 14.5325 11.9422 14.4421C12.0836 14.3518 12.2454 14.2984 12.4127 14.287C12.5801 14.2756 12.7477 14.3064 12.9 14.3768L19.783 17.5545L19.7823 17.5552Z" fill="url(#paint0_linear_4829_90710)"/>
<path d="M19.7823 17.5552C20.9433 18.0912 20.9433 19.7416 19.7815 20.2783L12.9007 23.4581C12.7483 23.5286 12.5806 23.5596 12.4131 23.5482C12.2455 23.5369 12.0836 23.4835 11.9421 23.393C11.8006 23.3026 11.6842 23.1779 11.6036 23.0306C11.523 22.8833 11.4808 22.7181 11.4808 22.5502V15.284C11.4809 15.1162 11.5233 14.9512 11.6039 14.8041C11.6845 14.6569 11.8009 14.5325 11.9422 14.4421C12.0836 14.3518 12.2454 14.2984 12.4127 14.287C12.5801 14.2756 12.7477 14.3064 12.9 14.3768L19.783 17.5545L19.7823 17.5552Z" fill="url(#paint1_radial_4829_90710)"/>
<path d="M19.7823 17.5552C20.9433 18.0912 20.9433 19.7416 19.7815 20.2783L12.9007 23.4581C12.7483 23.5286 12.5806 23.5596 12.4131 23.5482C12.2455 23.5369 12.0836 23.4835 11.9421 23.393C11.8006 23.3026 11.6842 23.1779 11.6036 23.0306C11.523 22.8833 11.4808 22.7181 11.4808 22.5502V15.284C11.4809 15.1162 11.5233 14.9512 11.6039 14.8041C11.6845 14.6569 11.8009 14.5325 11.9422 14.4421C12.0836 14.3518 12.2454 14.2984 12.4127 14.287C12.5801 14.2756 12.7477 14.3064 12.9 14.3768L19.783 17.5545L19.7823 17.5552Z" fill="url(#paint2_linear_4829_90710)"/>
<path d="M19.7815 26.0398C20.9433 26.5765 20.9433 28.2269 19.7815 28.7635L12.8993 31.942C12.747 32.0123 12.5794 32.0432 12.412 32.0318C12.2447 32.0203 12.0829 31.967 11.9415 31.8766C11.8002 31.7863 11.6838 31.6618 11.6032 31.5147C11.5226 31.3676 11.4802 31.2025 11.4801 31.0348V23.7685C11.4802 23.6008 11.5226 23.4357 11.6032 23.2886C11.6838 23.1415 11.8002 23.017 11.9415 22.9267C12.0829 22.8363 12.2447 22.783 12.412 22.7716C12.5794 22.7601 12.747 22.791 12.8993 22.8613L19.7823 26.0391L19.7815 26.0398Z" fill="url(#paint3_linear_4829_90710)"/>
<path d="M19.7815 26.0398C20.9433 26.5765 20.9433 28.2269 19.7815 28.7635L12.8993 31.942C12.747 32.0123 12.5794 32.0432 12.412 32.0318C12.2447 32.0203 12.0829 31.967 11.9415 31.8766C11.8002 31.7863 11.6838 31.6618 11.6032 31.5147C11.5226 31.3676 11.4802 31.2025 11.4801 31.0348V23.7685C11.4802 23.6008 11.5226 23.4357 11.6032 23.2886C11.6838 23.1415 11.8002 23.017 11.9415 22.9267C12.0829 22.8363 12.2447 22.783 12.412 22.7716C12.5794 22.7601 12.747 22.791 12.8993 22.8613L19.7823 26.0391L19.7815 26.0398Z" fill="url(#paint4_radial_4829_90710)"/>
<path d="M19.7815 26.0398C20.9433 26.5765 20.9433 28.2269 19.7815 28.7635L12.8993 31.942C12.747 32.0123 12.5794 32.0432 12.412 32.0318C12.2447 32.0203 12.0829 31.967 11.9415 31.8766C11.8002 31.7863 11.6838 31.6618 11.6032 31.5147C11.5226 31.3676 11.4802 31.2025 11.4801 31.0348V23.7685C11.4802 23.6008 11.5226 23.4357 11.6032 23.2886C11.6838 23.1415 11.8002 23.017 11.9415 22.9267C12.0829 22.8363 12.2447 22.783 12.412 22.7716C12.5794 22.7601 12.747 22.791 12.8993 22.8613L19.7823 26.0391L19.7815 26.0398Z" fill="url(#paint5_radial_4829_90710)"/>
<path d="M35.3287 18.7219C35.3557 18.7336 35.3787 18.753 35.3948 18.7776C35.4109 18.8023 35.4194 18.8311 35.4192 18.8605L35.3874 27.215C35.3874 27.2444 35.3787 27.2731 35.3625 27.2976C35.3463 27.3221 35.3232 27.3414 35.2962 27.3529C31.8526 28.8024 27.8765 30.0307 24.1974 30.0314C20.6138 30.0314 16.0565 28.5274 12.1971 26.9138L12.1978 19.1476C16.0572 17.534 20.6138 16.0307 24.1974 16.0307C27.8885 16.0307 31.8773 17.266 35.3273 18.7219L35.3287 18.7219Z" fill="url(#paint6_linear_4829_90710)"/>
<path d="M35.3287 18.7219C35.3557 18.7336 35.3787 18.753 35.3948 18.7776C35.4109 18.8023 35.4194 18.8311 35.4192 18.8605L35.3874 27.215C35.3874 27.2444 35.3787 27.2731 35.3625 27.2976C35.3463 27.3221 35.3232 27.3414 35.2962 27.3529C31.8526 28.8024 27.8765 30.0307 24.1974 30.0314C20.6138 30.0314 16.0565 28.5274 12.1971 26.9138L12.1978 19.1476C16.0572 17.534 20.6138 16.0307 24.1974 16.0307C27.8885 16.0307 31.8773 17.266 35.3273 18.7219L35.3287 18.7219Z" fill="url(#paint7_radial_4829_90710)"/>
<path d="M35.3287 18.7219C35.3557 18.7336 35.3787 18.753 35.3948 18.7776C35.4109 18.8023 35.4194 18.8311 35.4192 18.8605L35.3874 27.215C35.3874 27.2444 35.3787 27.2731 35.3625 27.2976C35.3463 27.3221 35.3232 27.3414 35.2962 27.3529C31.8526 28.8024 27.8765 30.0307 24.1974 30.0314C20.6138 30.0314 16.0565 28.5274 12.1971 26.9138L12.1978 19.1476C16.0572 17.534 20.6138 16.0307 24.1974 16.0307C27.8885 16.0307 31.8773 17.266 35.3273 18.7219L35.3287 18.7219Z" fill="url(#paint8_radial_4829_90710)"/>
<path d="M35.3287 18.7219C35.3557 18.7336 35.3787 18.753 35.3948 18.7776C35.4109 18.8023 35.4194 18.8311 35.4192 18.8605L35.3874 27.215C35.3874 27.2444 35.3787 27.2731 35.3625 27.2976C35.3463 27.3221 35.3232 27.3414 35.2962 27.3529C31.8526 28.8024 27.8765 30.0307 24.1974 30.0314C20.6138 30.0314 16.0565 28.5274 12.1971 26.9138L12.1978 19.1476C16.0572 17.534 20.6138 16.0307 24.1974 16.0307C27.8885 16.0307 31.8773 17.266 35.3273 18.7219L35.3287 18.7219Z" fill="url(#paint9_radial_4829_90710)"/>
<path d="M35.3287 18.7219C35.3557 18.7336 35.3787 18.753 35.3948 18.7776C35.4109 18.8023 35.4194 18.8311 35.4192 18.8605L35.3874 27.215C35.3874 27.2444 35.3787 27.2731 35.3625 27.2976C35.3463 27.3221 35.3232 27.3414 35.2962 27.3529C31.8526 28.8024 27.8765 30.0307 24.1974 30.0314C20.6138 30.0314 16.0565 28.5274 12.1971 26.9138L12.1978 19.1476C16.0572 17.534 20.6138 16.0307 24.1974 16.0307C27.8885 16.0307 31.8773 17.266 35.3273 18.7219L35.3287 18.7219Z" fill="url(#paint10_radial_4829_90710)"/>
<path d="M31.5018 25.5186C31.1919 25.8395 30.8211 26.0954 30.4112 26.2714C30.0013 26.4475 29.5604 26.5401 29.1143 26.544C28.6682 26.5478 28.2258 26.4628 27.8129 26.2939C27.4 26.1249 27.0249 25.8754 26.7095 25.56C26.394 25.2445 26.1445 24.8694 25.9756 24.4565C25.8066 24.0436 25.7216 23.6012 25.7255 23.1551C25.7293 22.709 25.822 22.2681 25.998 21.8582C26.174 21.4483 26.4299 21.0776 26.7508 20.7676C27.3845 20.1554 28.2333 19.8166 29.1143 19.8242C29.9954 19.8318 30.8382 20.1852 31.4612 20.8082C32.0842 21.4312 32.4376 22.2741 32.4452 23.1551C32.4528 24.0362 32.114 24.885 31.5018 25.5186Z" fill="url(#paint11_linear_4829_90710)"/>
<path d="M31.5018 25.5186C31.1919 25.8395 30.8211 26.0954 30.4112 26.2714C30.0013 26.4475 29.5604 26.5401 29.1143 26.544C28.6682 26.5478 28.2258 26.4628 27.8129 26.2939C27.4 26.1249 27.0249 25.8754 26.7095 25.56C26.394 25.2445 26.1445 24.8694 25.9756 24.4565C25.8066 24.0436 25.7216 23.6012 25.7255 23.1551C25.7293 22.709 25.822 22.2681 25.998 21.8582C26.174 21.4483 26.4299 21.0776 26.7508 20.7676C27.3845 20.1554 28.2333 19.8166 29.1143 19.8242C29.9954 19.8318 30.8382 20.1852 31.4612 20.8082C32.0842 21.4312 32.4376 22.2741 32.4452 23.1551C32.4528 24.0362 32.114 24.885 31.5018 25.5186Z" fill="url(#paint12_radial_4829_90710)"/>
<path d="M30.7707 24.7875C30.5564 25.0108 30.2997 25.1892 30.0156 25.3121C29.7316 25.4349 29.4258 25.4999 29.1163 25.5031C28.8068 25.5063 28.4998 25.4477 28.2132 25.3307C27.9267 25.2138 27.6663 25.0408 27.4475 24.8219C27.2286 24.6031 27.0556 24.3427 26.9387 24.0562C26.8217 23.7696 26.7631 23.4626 26.7663 23.1531C26.7695 22.8436 26.8345 22.5379 26.9574 22.2538C27.0803 21.9697 27.2586 21.713 27.4819 21.4987C27.9211 21.0774 28.5078 20.845 29.1163 20.8513C29.7248 20.8576 30.3066 21.1022 30.7369 21.5325C31.1672 21.9628 31.4118 22.5446 31.4181 23.1531C31.4244 23.7616 31.192 24.3484 30.7707 24.7875Z" fill="url(#paint13_radial_4829_90710)"/>
<path d="M2.83008 22.9688C2.83008 21.969 6.49855 18.7021 8.97342 19.7628C8.97342 19.7628 11.4483 20.8234 11.4561 23.094C11.4639 25.3645 9.68053 26.1267 9.68053 26.1267C7.68083 27.1266 4.95635 25.5943 4.95635 25.0937C4.95635 24.8179 5.45557 24.8151 5.45557 24.5944C5.45627 24.3731 5.15858 24.3286 4.45642 24.0945C3.95579 23.9276 2.83008 23.369 2.83008 22.9688Z" fill="url(#paint14_radial_4829_90710)"/>
<path d="M2.83008 22.9688C2.83008 21.969 6.49855 18.7021 8.97342 19.7628C8.97342 19.7628 11.4483 20.8234 11.4561 23.094C11.4639 25.3645 9.68053 26.1267 9.68053 26.1267C7.68083 27.1266 4.95635 25.5943 4.95635 25.0937C4.95635 24.8179 5.45557 24.8151 5.45557 24.5944C5.45627 24.3731 5.15858 24.3286 4.45642 24.0945C3.95579 23.9276 2.83008 23.369 2.83008 22.9688Z" fill="url(#paint15_radial_4829_90710)"/>
<path d="M11.4483 19.4941C11.6454 19.494 11.8405 19.5328 12.0226 19.6082C12.2047 19.6836 12.3701 19.7941 12.5094 19.9334C12.6488 20.0728 12.7593 20.2382 12.8347 20.4203C12.9101 20.6024 12.9488 20.7975 12.9488 20.9946L12.9481 25.9945C12.9373 26.385 12.7746 26.7558 12.4947 27.0282C12.2148 27.3006 11.8396 27.4531 11.449 27.4532C11.0584 27.4533 10.6832 27.301 10.4031 27.0287C10.123 26.7565 9.96018 26.3857 9.94923 25.9952L9.94781 20.9946C9.94775 20.7975 9.98652 20.6024 10.0619 20.4203C10.1373 20.2382 10.2478 20.0728 10.3872 19.9334C10.5265 19.7941 10.6919 19.6836 10.874 19.6082C11.0561 19.5328 11.2512 19.494 11.4483 19.4941Z" fill="url(#paint16_linear_4829_90710)"/>
<path d="M11.4483 19.4941C11.6454 19.494 11.8405 19.5328 12.0226 19.6082C12.2047 19.6836 12.3701 19.7941 12.5094 19.9334C12.6488 20.0728 12.7593 20.2382 12.8347 20.4203C12.9101 20.6024 12.9488 20.7975 12.9488 20.9946L12.9481 25.9945C12.9373 26.385 12.7746 26.7558 12.4947 27.0282C12.2148 27.3006 11.8396 27.4531 11.449 27.4532C11.0584 27.4533 10.6832 27.301 10.4031 27.0287C10.123 26.7565 9.96018 26.3857 9.94923 25.9952L9.94781 20.9946C9.94775 20.7975 9.98652 20.6024 10.0619 20.4203C10.1373 20.2382 10.2478 20.0728 10.3872 19.9334C10.5265 19.7941 10.6919 19.6836 10.874 19.6082C11.0561 19.5328 11.2512 19.494 11.4483 19.4941Z" fill="url(#paint17_radial_4829_90710)"/>
<path d="M11.4483 19.4941C11.6454 19.494 11.8405 19.5328 12.0226 19.6082C12.2047 19.6836 12.3701 19.7941 12.5094 19.9334C12.6488 20.0728 12.7593 20.2382 12.8347 20.4203C12.9101 20.6024 12.9488 20.7975 12.9488 20.9946L12.9481 25.9945C12.9373 26.385 12.7746 26.7558 12.4947 27.0282C12.2148 27.3006 11.8396 27.4531 11.449 27.4532C11.0584 27.4533 10.6832 27.301 10.4031 27.0287C10.123 26.7565 9.96018 26.3857 9.94923 25.9952L9.94781 20.9946C9.94775 20.7975 9.98652 20.6024 10.0619 20.4203C10.1373 20.2382 10.2478 20.0728 10.3872 19.9334C10.5265 19.7941 10.6919 19.6836 10.874 19.6082C11.0561 19.5328 11.2512 19.494 11.4483 19.4941Z" fill="url(#paint18_radial_4829_90710)"/>
<path d="M40.5974 23.0303C40.5974 21.6911 39.3472 20.5922 38.1974 20.0308C37.3306 19.6064 36.4533 19.204 35.5663 18.8237C35.5511 18.8173 35.5346 18.8146 35.5182 18.8161C35.5018 18.8175 35.486 18.823 35.4722 18.832C35.4584 18.8411 35.4471 18.8534 35.4392 18.8678C35.4313 18.8823 35.4271 18.8985 35.427 18.915L35.3994 27.1591C35.3996 27.1754 35.4038 27.1914 35.4116 27.2057C35.4194 27.22 35.4306 27.2322 35.4442 27.2412C35.4578 27.2502 35.4734 27.2557 35.4896 27.2573C35.5059 27.2589 35.5222 27.2565 35.5373 27.2503C36.4342 26.8666 37.3212 26.4601 38.1974 26.0313C39.3316 25.4769 40.5974 24.6779 40.5974 23.0303Z" fill="url(#paint19_linear_4829_90710)"/>
<path d="M40.5974 23.0303C40.5974 21.6911 39.3472 20.5922 38.1974 20.0308C37.3306 19.6064 36.4533 19.204 35.5663 18.8237C35.5511 18.8173 35.5346 18.8146 35.5182 18.8161C35.5018 18.8175 35.486 18.823 35.4722 18.832C35.4584 18.8411 35.4471 18.8534 35.4392 18.8678C35.4313 18.8823 35.4271 18.8985 35.427 18.915L35.3994 27.1591C35.3996 27.1754 35.4038 27.1914 35.4116 27.2057C35.4194 27.22 35.4306 27.2322 35.4442 27.2412C35.4578 27.2502 35.4734 27.2557 35.4896 27.2573C35.5059 27.2589 35.5222 27.2565 35.5373 27.2503C36.4342 26.8666 37.3212 26.4601 38.1974 26.0313C39.3316 25.4769 40.5974 24.6779 40.5974 23.0303Z" fill="url(#paint20_radial_4829_90710)"/>
<path d="M40.5974 23.0303C40.5974 21.6911 39.3472 20.5922 38.1974 20.0308C37.3306 19.6064 36.4533 19.204 35.5663 18.8237C35.5511 18.8173 35.5346 18.8146 35.5182 18.8161C35.5018 18.8175 35.486 18.823 35.4722 18.832C35.4584 18.8411 35.4471 18.8534 35.4392 18.8678C35.4313 18.8823 35.4271 18.8985 35.427 18.915L35.3994 27.1591C35.3996 27.1754 35.4038 27.1914 35.4116 27.2057C35.4194 27.22 35.4306 27.2322 35.4442 27.2412C35.4578 27.2502 35.4734 27.2557 35.4896 27.2573C35.5059 27.2589 35.5222 27.2565 35.5373 27.2503C36.4342 26.8666 37.3212 26.4601 38.1974 26.0313C39.3316 25.4769 40.5974 24.6779 40.5974 23.0303Z" fill="url(#paint21_linear_4829_90710)"/>
<path d="M19.7823 21.7978C20.9433 22.3338 20.9433 23.9842 19.7815 24.5209L12.9 27.7001C12.7476 27.7706 12.5799 27.8016 12.4124 27.7902C12.2448 27.7788 12.0829 27.7254 11.9414 27.635C11.7999 27.5445 11.6835 27.4199 11.6029 27.2726C11.5223 27.1253 11.4801 26.9601 11.4801 26.7921V19.5259C11.4802 19.3581 11.5226 19.1931 11.6032 19.046C11.6838 18.8989 11.8002 18.7744 11.9415 18.684C12.0829 18.5937 12.2447 18.5403 12.412 18.5289C12.5794 18.5175 12.747 18.5484 12.8993 18.6187L19.783 21.7971L19.7823 21.7978Z" fill="url(#paint22_linear_4829_90710)"/>
<path d="M19.7823 21.7978C20.9433 22.3338 20.9433 23.9842 19.7815 24.5209L12.9 27.7001C12.7476 27.7706 12.5799 27.8016 12.4124 27.7902C12.2448 27.7788 12.0829 27.7254 11.9414 27.635C11.7999 27.5445 11.6835 27.4199 11.6029 27.2726C11.5223 27.1253 11.4801 26.9601 11.4801 26.7921V19.5259C11.4802 19.3581 11.5226 19.1931 11.6032 19.046C11.6838 18.8989 11.8002 18.7744 11.9415 18.684C12.0829 18.5937 12.2447 18.5403 12.412 18.5289C12.5794 18.5175 12.747 18.5484 12.8993 18.6187L19.783 21.7971L19.7823 21.7978Z" fill="url(#paint23_radial_4829_90710)"/>
<path d="M19.7823 21.7978C20.9433 22.3338 20.9433 23.9842 19.7815 24.5209L12.9 27.7001C12.7476 27.7706 12.5799 27.8016 12.4124 27.7902C12.2448 27.7788 12.0829 27.7254 11.9414 27.635C11.7999 27.5445 11.6835 27.4199 11.6029 27.2726C11.5223 27.1253 11.4801 26.9601 11.4801 26.7921V19.5259C11.4802 19.3581 11.5226 19.1931 11.6032 19.046C11.6838 18.8989 11.8002 18.7744 11.9415 18.684C12.0829 18.5937 12.2447 18.5403 12.412 18.5289C12.5794 18.5175 12.747 18.5484 12.8993 18.6187L19.783 21.7971L19.7823 21.7978Z" fill="url(#paint24_radial_4829_90710)"/>
<path d="M19.7823 21.7978C20.9433 22.3338 20.9433 23.9842 19.7815 24.5209L12.9 27.7001C12.7476 27.7706 12.5799 27.8016 12.4124 27.7902C12.2448 27.7788 12.0829 27.7254 11.9414 27.635C11.7999 27.5445 11.6835 27.4199 11.6029 27.2726C11.5223 27.1253 11.4801 26.9601 11.4801 26.7921V19.5259C11.4802 19.3581 11.5226 19.1931 11.6032 19.046C11.6838 18.8989 11.8002 18.7744 11.9415 18.684C12.0829 18.5937 12.2447 18.5403 12.412 18.5289C12.5794 18.5175 12.747 18.5484 12.8993 18.6187L19.783 21.7971L19.7823 21.7978Z" fill="url(#paint25_radial_4829_90710)"/>
<path d="M12.9191 22.471L20.0128 23.3323L12.8972 25.3214L12.9191 22.471Z" fill="url(#paint26_linear_4829_90710)"/>
</g>
<defs>
<linearGradient id="paint0_linear_4829_90710" x1="23.2681" y1="20.9662" x2="5.62394" y2="14.778" gradientUnits="userSpaceOnUse">
<stop stop-color="#EE2452"/>
<stop offset="1" stop-color="#F63E7A"/>
</linearGradient>
<radialGradient id="paint1_radial_4829_90710" cx="0" cy="0" r="1" gradientUnits="userSpaceOnUse" gradientTransform="translate(1.22666 20.5221) rotate(-9.68316) scale(29.4369 2.58653)">
<stop offset="0.164" stop-color="#FF8DB0"/>
<stop offset="1" stop-color="#FF8DB0" stop-opacity="0"/>
</radialGradient>
<linearGradient id="paint2_linear_4829_90710" x1="10.899" y1="25.3625" x2="12.0547" y2="22.9633" gradientUnits="userSpaceOnUse">
<stop offset="0.491" stop-color="#DD467C"/>
<stop offset="1" stop-color="#DD467C" stop-opacity="0"/>
</linearGradient>
<linearGradient id="paint3_linear_4829_90710" x1="37.856" y1="18.0007" x2="27.6235" y2="35.0848" gradientUnits="userSpaceOnUse">
<stop stop-color="#F83267"/>
<stop offset="1" stop-color="#FF3190"/>
</linearGradient>
<radialGradient id="paint4_radial_4829_90710" cx="0" cy="0" r="1" gradientUnits="userSpaceOnUse" gradientTransform="translate(25.0773 18.9627) rotate(82.5473) scale(13.9414 25.2402)">
<stop offset="0.757" stop-color="#E76CBE" stop-opacity="0"/>
<stop offset="0.951" stop-color="#E76CBE"/>
</radialGradient>
<radialGradient id="paint5_radial_4829_90710" cx="0" cy="0" r="1" gradientUnits="userSpaceOnUse" gradientTransform="translate(20.7354 26.2716) rotate(-36.2543) scale(13.6043 6.27295)">
<stop stop-color="#FF5898"/>
<stop offset="1" stop-color="#FF5898" stop-opacity="0"/>
</radialGradient>
<linearGradient id="paint6_linear_4829_90710" x1="15.0083" y1="18.3958" x2="20.4156" y2="29.991" gradientUnits="userSpaceOnUse">
<stop stop-color="#CCBBC0"/>
<stop offset="1" stop-color="#EAD2EC"/>
</linearGradient>
<radialGradient id="paint7_radial_4829_90710" cx="0" cy="0" r="1" gradientUnits="userSpaceOnUse" gradientTransform="translate(32.8875 28.7324) rotate(-160.146) scale(23.9723 29.7897)">
<stop offset="0.811" stop-color="#E7E5E5" stop-opacity="0"/>
<stop offset="1" stop-color="#E7E5E5"/>
</radialGradient>
<radialGradient id="paint8_radial_4829_90710" cx="0" cy="0" r="1" gradientUnits="userSpaceOnUse" gradientTransform="translate(7.66656 28.5186) rotate(-35.8022) scale(11.2489 5.48547)">
<stop offset="0.281" stop-color="#B5A3A5"/>
<stop offset="1" stop-color="#B5A3A5" stop-opacity="0"/>
</radialGradient>
<radialGradient id="paint9_radial_4829_90710" cx="0" cy="0" r="1" gradientUnits="userSpaceOnUse" gradientTransform="translate(2.82892 27.542) rotate(-57.9689) scale(7.87854 2.21919)">
<stop offset="0.208" stop-color="#B28F96"/>
<stop offset="1" stop-color="#B28F96" stop-opacity="0"/>
</radialGradient>
<radialGradient id="paint10_radial_4829_90710" cx="0" cy="0" r="1" gradientUnits="userSpaceOnUse" gradientTransform="translate(38.2425 17.1446) rotate(156.556) scale(17.9935 4.09145)">
<stop stop-color="#FAECF1"/>
<stop offset="1" stop-color="#FAECF1" stop-opacity="0"/>
</radialGradient>
<linearGradient id="paint11_linear_4829_90710" x1="2.83289" y1="21.4981" x2="39.663" y2="28.158" gradientUnits="userSpaceOnUse">
<stop stop-color="#A796A0"/>
<stop offset="1" stop-color="#A5959F"/>
</linearGradient>
<radialGradient id="paint12_radial_4829_90710" cx="0" cy="0" r="1" gradientUnits="userSpaceOnUse" gradientTransform="translate(21.7221 23.0063) rotate(90) scale(8.87307 18.8802)">
<stop offset="0.587" stop-color="#93859B"/>
<stop offset="1" stop-color="#93859B" stop-opacity="0"/>
</radialGradient>
<radialGradient id="paint13_radial_4829_90710" cx="0" cy="0" r="1" gradientUnits="userSpaceOnUse" gradientTransform="translate(21.7097 31.8501) rotate(-90) scale(18.488 36.1782)">
<stop stop-color="#72CDFF"/>
<stop offset="0.738" stop-color="#66ACFF"/>
<stop offset="1" stop-color="#3B57F4"/>
</radialGradient>
<radialGradient id="paint14_radial_4829_90710" cx="0" cy="0" r="1" gradientUnits="userSpaceOnUse" gradientTransform="translate(33.2657 18.417) rotate(153.103) scale(22.9568 14.5604)">
<stop stop-color="#D46213"/>
<stop offset="1" stop-color="#FF9542"/>
</radialGradient>
<radialGradient id="paint15_radial_4829_90710" cx="0" cy="0" r="1" gradientUnits="userSpaceOnUse" gradientTransform="translate(33.8292 30.3638) rotate(-149.897) scale(27.2311 25.1259)">
<stop offset="0.871" stop-color="#FFC484" stop-opacity="0"/>
<stop offset="1" stop-color="#FFC484"/>
</radialGradient>
<linearGradient id="paint16_linear_4829_90710" x1="3.86132" y1="18.1328" x2="15.5412" y2="42.5588" gradientUnits="userSpaceOnUse">
<stop stop-color="#452860"/>
<stop offset="1" stop-color="#51509F"/>
</linearGradient>
<radialGradient id="paint17_radial_4829_90710" cx="0" cy="0" r="1" gradientUnits="userSpaceOnUse" gradientTransform="translate(9.85099 16.7689) rotate(65.3494) scale(4.78347 7.7734)">
<stop stop-color="#8E839A"/>
<stop offset="1" stop-color="#8E839A" stop-opacity="0"/>
</radialGradient>
<radialGradient id="paint18_radial_4829_90710" cx="0" cy="0" r="1" gradientUnits="userSpaceOnUse" gradientTransform="translate(12.0391 19.4013) rotate(27.5112) scale(27.2359 11.7595)">
<stop offset="0.86" stop-color="#6175B9" stop-opacity="0"/>
<stop offset="1" stop-color="#6175B9"/>
</radialGradient>
<linearGradient id="paint19_linear_4829_90710" x1="36.5203" y1="16.0592" x2="29.6627" y2="30.5624" gradientUnits="userSpaceOnUse">
<stop stop-color="#FF3745"/>
<stop offset="1" stop-color="#ED224B"/>
</linearGradient>
<radialGradient id="paint20_radial_4829_90710" cx="0" cy="0" r="1" gradientUnits="userSpaceOnUse" gradientTransform="translate(34.2843 19.612) rotate(154.693) scale(32.9276 6.10923)">
<stop offset="0.189" stop-color="#FF5971"/>
<stop offset="1" stop-color="#FF5971" stop-opacity="0"/>
</radialGradient>
<linearGradient id="paint21_linear_4829_90710" x1="19.3939" y1="25.5234" x2="20.0605" y2="24.0522" gradientUnits="userSpaceOnUse">
<stop stop-color="#D2575E"/>
<stop offset="1" stop-color="#F93251" stop-opacity="0"/>
</linearGradient>
<linearGradient id="paint22_linear_4829_90710" x1="38.8898" y1="15.0871" x2="29.8376" y2="34.3498" gradientUnits="userSpaceOnUse">
<stop stop-color="#FF2644"/>
<stop offset="1" stop-color="#FF2982"/>
</linearGradient>
<radialGradient id="paint23_radial_4829_90710" cx="0" cy="0" r="1" gradientUnits="userSpaceOnUse" gradientTransform="translate(4.46345 19.36) rotate(-10.1552) scale(27.3114 3.7285)">
<stop stop-color="#FF95AF"/>
<stop offset="1" stop-color="#FF95AF" stop-opacity="0"/>
</radialGradient>
<radialGradient id="paint24_radial_4829_90710" cx="0" cy="0" r="1" gradientUnits="userSpaceOnUse" gradientTransform="translate(1.23068 20.9662) rotate(24.9435) scale(13.9409 3.14953)">
<stop offset="0.382" stop-color="#E14678"/>
<stop offset="1" stop-color="#E14678" stop-opacity="0"/>
</radialGradient>
<radialGradient id="paint25_radial_4829_90710" cx="0" cy="0" r="1" gradientUnits="userSpaceOnUse" gradientTransform="translate(25.0792 18.8488) rotate(78.7799) scale(13.6305 29.9974)">
<stop offset="0.832" stop-color="#E67BC7" stop-opacity="0"/>
<stop offset="1" stop-color="#E67BC7"/>
</radialGradient>
<linearGradient id="paint26_linear_4829_90710" x1="19.0862" y1="23.0673" x2="13.1196" y2="23.2002" gradientUnits="userSpaceOnUse">
<stop stop-color="#FF5970"/>
<stop offset="1" stop-color="#FF5794"/>
</linearGradient>
<clipPath id="clip0_4829_90710">
<rect width="32" height="32" fill="white" transform="translate(23 0.372559) rotate(45)"/>
</clipPath>
</defs>
</svg>
